<mxfile host="app.diagrams.net" agent="Mozilla/5.0 (Windows NT 10.0; Win64; x64) AppleWebKit/537.36 (KHTML, like Gecko) Chrome/135.0.0.0 Safari/537.36" version="26.2.12">
  <diagram name="Page-1" id="uRuk63X8mhres535oerC">
    <mxGraphModel grid="1" page="1" gridSize="10" guides="1" tooltips="1" connect="1" arrows="1" fold="1" pageScale="1" pageWidth="850" pageHeight="1100" math="0" shadow="0">
      <root>
        <mxCell id="0" />
        <mxCell id="1" parent="0" />
        <mxCell id="-hjadPumP9lirHL74yHK-17" value="" style="rounded=0;whiteSpace=wrap;html=1;" vertex="1" parent="1">
          <mxGeometry x="160" y="110" width="450" height="290" as="geometry" />
        </mxCell>
        <mxCell id="gj5YRycNZbYV5hKuz8R2-12" style="edgeStyle=orthogonalEdgeStyle;rounded=0;orthogonalLoop=1;jettySize=auto;html=1;exitX=1;exitY=0.5;exitDx=0;exitDy=0;entryX=0;entryY=0.5;entryDx=0;entryDy=0;jumpSize=10;endSize=10;fontFamily=Times New Roman;" edge="1" parent="1" source="gj5YRycNZbYV5hKuz8R2-1" target="gj5YRycNZbYV5hKuz8R2-10">
          <mxGeometry relative="1" as="geometry" />
        </mxCell>
        <mxCell id="gj5YRycNZbYV5hKuz8R2-1" value="Reactive&amp;nbsp;&lt;div&gt;Maintenance&lt;/div&gt;" style="shape=step;perimeter=stepPerimeter;whiteSpace=wrap;html=1;fixedSize=1;fontFamily=Times New Roman;size=10;fillColor=#f8cecc;strokeColor=#000000;" vertex="1" parent="1">
          <mxGeometry width="90" height="40" as="geometry" />
        </mxCell>
        <mxCell id="gj5YRycNZbYV5hKuz8R2-13" style="edgeStyle=orthogonalEdgeStyle;rounded=0;orthogonalLoop=1;jettySize=auto;html=1;endSize=10;fontFamily=Times New Roman;" edge="1" parent="1" source="gj5YRycNZbYV5hKuz8R2-10" target="gj5YRycNZbYV5hKuz8R2-11">
          <mxGeometry relative="1" as="geometry" />
        </mxCell>
        <mxCell id="gj5YRycNZbYV5hKuz8R2-10" value="&lt;div&gt;Preventive&amp;nbsp;&lt;/div&gt;&lt;div&gt;Maintenance&lt;/div&gt;" style="shape=step;perimeter=stepPerimeter;whiteSpace=wrap;html=1;fixedSize=1;fontFamily=Times New Roman;size=10;fillColor=#fff2cc;strokeColor=#000000;" vertex="1" parent="1">
          <mxGeometry x="120" width="90" height="40" as="geometry" />
        </mxCell>
        <mxCell id="gj5YRycNZbYV5hKuz8R2-11" value="&lt;div&gt;Predictive&amp;nbsp;&lt;/div&gt;&lt;div&gt;Maintenance&lt;/div&gt;" style="shape=step;perimeter=stepPerimeter;whiteSpace=wrap;html=1;fixedSize=1;fontFamily=Times New Roman;size=10;fillColor=#d5e8d4;strokeColor=#000000;" vertex="1" parent="1">
          <mxGeometry x="240" width="90" height="40" as="geometry" />
        </mxCell>
        <mxCell id="-hjadPumP9lirHL74yHK-1" value="" style="endArrow=classic;html=1;rounded=0;fontFamily=Times New Roman;" edge="1" parent="1">
          <mxGeometry width="50" height="50" relative="1" as="geometry">
            <mxPoint x="200" y="360" as="sourcePoint" />
            <mxPoint x="200" y="120" as="targetPoint" />
          </mxGeometry>
        </mxCell>
        <mxCell id="-hjadPumP9lirHL74yHK-2" value="" style="endArrow=classic;html=1;rounded=0;fontFamily=Times New Roman;" edge="1" parent="1">
          <mxGeometry width="50" height="50" relative="1" as="geometry">
            <mxPoint x="200" y="360" as="sourcePoint" />
            <mxPoint x="600" y="360" as="targetPoint" />
          </mxGeometry>
        </mxCell>
        <mxCell id="-hjadPumP9lirHL74yHK-7" value="" style="endArrow=classic;html=1;rounded=0;edgeStyle=orthogonalEdgeStyle;curved=1;fontFamily=Times New Roman;" edge="1" parent="1">
          <mxGeometry width="50" height="50" relative="1" as="geometry">
            <mxPoint x="200" y="360" as="sourcePoint" />
            <mxPoint x="560" y="200" as="targetPoint" />
            <Array as="points">
              <mxPoint x="200" y="310" />
              <mxPoint x="560" y="310" />
            </Array>
          </mxGeometry>
        </mxCell>
        <mxCell id="-hjadPumP9lirHL74yHK-12" style="edgeStyle=orthogonalEdgeStyle;rounded=0;orthogonalLoop=1;jettySize=auto;html=1;fontFamily=Times New Roman;dashed=1;endArrow=classicThin;endFill=1;" edge="1" parent="1" source="-hjadPumP9lirHL74yHK-8">
          <mxGeometry relative="1" as="geometry">
            <mxPoint x="260" y="320" as="targetPoint" />
          </mxGeometry>
        </mxCell>
        <mxCell id="-hjadPumP9lirHL74yHK-8" value="Reactive Maintenance" style="rounded=1;whiteSpace=wrap;html=1;fontFamily=Times New Roman;fillColor=#f8cecc;strokeColor=#b85450;" vertex="1" parent="1">
          <mxGeometry x="220" y="250" width="80" height="40" as="geometry" />
        </mxCell>
        <mxCell id="-hjadPumP9lirHL74yHK-13" style="edgeStyle=orthogonalEdgeStyle;rounded=0;orthogonalLoop=1;jettySize=auto;html=1;fontFamily=Times New Roman;dashed=1;endArrow=classicThin;endFill=1;" edge="1" parent="1" source="-hjadPumP9lirHL74yHK-9">
          <mxGeometry relative="1" as="geometry">
            <mxPoint x="370" y="310" as="targetPoint" />
          </mxGeometry>
        </mxCell>
        <mxCell id="-hjadPumP9lirHL74yHK-9" value="Preventive Maintenance" style="rounded=1;whiteSpace=wrap;html=1;fontFamily=Times New Roman;fillColor=#fff2cc;strokeColor=#d6b656;" vertex="1" parent="1">
          <mxGeometry x="330" y="200" width="80" height="40" as="geometry" />
        </mxCell>
        <mxCell id="-hjadPumP9lirHL74yHK-14" style="edgeStyle=orthogonalEdgeStyle;rounded=0;orthogonalLoop=1;jettySize=auto;html=1;fontFamily=Times New Roman;dashed=1;endArrow=classicThin;endFill=1;" edge="1" parent="1" source="-hjadPumP9lirHL74yHK-10">
          <mxGeometry relative="1" as="geometry">
            <mxPoint x="480" y="300" as="targetPoint" />
          </mxGeometry>
        </mxCell>
        <mxCell id="-hjadPumP9lirHL74yHK-10" value="Predictive Maintenance" style="rounded=1;whiteSpace=wrap;html=1;fontFamily=Times New Roman;fillColor=#d5e8d4;strokeColor=#82b366;" vertex="1" parent="1">
          <mxGeometry x="440" y="160" width="80" height="40" as="geometry" />
        </mxCell>
        <mxCell id="-hjadPumP9lirHL74yHK-15" value="&lt;font style=&quot;font-size: 14px;&quot;&gt;Performance Measures&lt;/font&gt;" style="text;html=1;align=center;verticalAlign=middle;whiteSpace=wrap;rounded=0;fontFamily=Times New Roman;" vertex="1" parent="1">
          <mxGeometry x="340" y="360" width="140" height="30" as="geometry" />
        </mxCell>
        <mxCell id="-hjadPumP9lirHL74yHK-16" value="&lt;font style=&quot;font-size: 14px;&quot;&gt;Reliability Improvement&lt;/font&gt;" style="text;html=1;align=center;verticalAlign=middle;whiteSpace=wrap;rounded=0;rotation=-90;fontFamily=Times New Roman;" vertex="1" parent="1">
          <mxGeometry x="100" y="220" width="170" height="30" as="geometry" />
        </mxCell>
        <mxCell id="eG-dhjeH3GK4kFMWSmCd-1" value="&lt;font style=&quot;font-size: 16px;&quot;&gt;🔧&lt;/font&gt;" style="text;html=1;align=center;verticalAlign=middle;resizable=0;points=[];autosize=1;strokeColor=none;fillColor=none;" vertex="1" parent="1">
          <mxGeometry x="235" y="220" width="50" height="30" as="geometry" />
        </mxCell>
        <mxCell id="eG-dhjeH3GK4kFMWSmCd-2" value="&lt;font style=&quot;font-size: 16px;&quot;&gt;🛠️&lt;/font&gt;" style="text;html=1;align=center;verticalAlign=middle;resizable=0;points=[];autosize=1;strokeColor=none;fillColor=none;" vertex="1" parent="1">
          <mxGeometry x="345" y="170" width="50" height="30" as="geometry" />
        </mxCell>
        <mxCell id="eG-dhjeH3GK4kFMWSmCd-3" value="&lt;font style=&quot;font-size: 16px;&quot;&gt;📊&lt;/font&gt;" style="text;html=1;align=center;verticalAlign=middle;resizable=0;points=[];autosize=1;strokeColor=none;fillColor=none;" vertex="1" parent="1">
          <mxGeometry x="455" y="130" width="50" height="30" as="geometry" />
        </mxCell>
      </root>
    </mxGraphModel>
  </diagram>
</mxfile>
